<svg xmlns="http://www.w3.org/2000/svg" viewBox="0 0 64 64" fill="none">
  <defs>
    <linearGradient id="sv" x1="10" y1="6" x2="54" y2="60" gradientUnits="userSpaceOnUse">
      <stop offset="0" stop-color="#FBBF24"/>
      <stop offset="1" stop-color="#F59E0B"/>
    </linearGradient>
  </defs>
  <rect width="64" height="64" rx="14" fill="#0a0a0f"/>
  <path d="M32 6 L52 13 V31 C52 43.5 44 52.5 32 57 C20 52.5 12 43.5 12 31 V13 Z" stroke="url(#sv)" stroke-width="3.5" stroke-linejoin="round"/>
  <circle cx="23" cy="20" r="2.3" fill="#F59E0B"/>
  <circle cx="32" cy="16" r="2.3" fill="#F59E0B"/>
  <circle cx="41" cy="20" r="2.3" fill="#F59E0B"/>
  <circle cx="32" cy="26" r="2.8" fill="#FBBF24"/>
  <path d="M23 20 L32 26 M32 16 L32 26 M41 20 L32 26" stroke="#F59E0B" stroke-width="1.6" stroke-linecap="round"/>
  <circle cx="32" cy="35" r="4" fill="#F59E0B"/>
  <path d="M24.5 47 C24.5 41 39.5 41 39.5 47" fill="#F59E0B"/>
  <path d="M25 48.5 L31.5 53.5 L43 41" stroke="url(#sv)" stroke-width="4" stroke-linecap="round" stroke-linejoin="round"/>
</svg>
